<svg width="156" height="33" viewBox="0 0 156 33" fill="none" xmlns="http://www.w3.org/2000/svg">
<path fill-rule="evenodd" clip-rule="evenodd" d="M9.54785 23.0453L9.5507 23.0425C7.9509 21.4284 6.9648 19.2064 6.9743 16.763C6.98285 14.3148 7.98605 12.1004 9.6001 10.5006L9.59535 10.4968C10.9615 9.14015 10.97 6.9333 9.6134 5.5691C8.25775 4.20205 6.04995 4.1935 4.68385 5.5501C1.8044 8.4058 0.0165045 12.3616 0.000354495 16.7373C-0.0157955 21.113 1.7417 25.0793 4.60025 27.9559C5.95685 29.3229 8.1637 29.3315 9.5298 27.9739C10.8969 26.6202 10.9054 24.4133 9.5488 23.0463L9.54785 23.0453Z" fill="#FFD85F"/>
<mask id="mask0" mask-type="alpha" maskUnits="userSpaceOnUse" x="3" y="0" width="26" height="12">
<path fill-rule="evenodd" clip-rule="evenodd" d="M28.1022 0.949707H3.65454L3.65454 11.5756H28.1022V0.949707V0.949707Z" fill="white"/>
</mask>
<g mask="url(#mask0)">
<path fill-rule="evenodd" clip-rule="evenodd" d="M9.59515 10.4972L9.59895 10.501C11.2121 8.9012 13.4341 7.91509 15.8775 7.92365C18.3257 7.93315 20.5401 8.9354 22.1399 10.5494L22.1437 10.5447C23.5013 11.9117 25.7072 11.9203 27.0714 10.5637C28.4384 9.2071 28.447 7.00025 27.0904 5.6332C24.2347 2.75375 20.2789 0.965845 15.9041 0.949695C11.5275 0.933545 7.5612 2.692 4.6846 5.5496C3.3185 6.90715 3.30995 9.11304 4.66655 10.4801C6.0203 11.8471 8.2281 11.8547 9.5942 10.4981L9.59515 10.4972Z" fill="#3BB4E7"/>
</g>
<path fill-rule="evenodd" clip-rule="evenodd" d="M22.0965 23.0921L22.0926 23.0892C20.4795 24.6881 18.2575 25.6751 15.8141 25.6656C13.366 25.6571 11.1515 24.6539 9.55265 23.0398L9.5479 23.0446C8.19035 21.6775 5.98445 21.669 4.62025 23.0265C3.2532 24.3831 3.24465 26.59 4.60125 27.9561C7.45695 30.8355 11.4128 32.6234 15.7875 32.6396C20.1642 32.6557 24.1304 30.8973 27.007 28.0397C28.3731 26.6831 28.3817 24.4762 27.0251 23.1092C25.6713 21.7431 23.4635 21.7345 22.0974 23.0911L22.0965 23.0921Z" fill="#ED5C68"/>
<path fill-rule="evenodd" clip-rule="evenodd" d="M9.59513 10.4968C8.22903 11.8534 6.02123 11.8448 4.66558 10.4778C3.30898 9.11165 3.31753 6.9048 4.68363 5.5501C6.05068 4.1935 8.25753 4.20205 9.61413 5.5691C10.9698 6.9333 10.9612 9.14015 9.59513 10.4968Z" fill="#308BC5"/>
<path fill-rule="evenodd" clip-rule="evenodd" d="M9.53031 27.9743C8.16421 29.3309 5.95641 29.3224 4.60076 27.9563C3.24416 26.5911 3.25271 24.3852 4.61881 23.0277C5.98586 21.672 8.19271 21.6796 9.54931 23.0467C10.905 24.4128 10.8964 26.6196 9.53031 27.9743Z" fill="#D5465F"/>
<path fill-rule="evenodd" clip-rule="evenodd" d="M89.5993 15.3011L97.0254 15.3286C96.7499 13.4799 95.2204 12.7437 93.4572 12.737C91.6665 12.7294 90.1503 13.5578 89.5993 15.3011ZM53.3226 12.8168C55.5741 12.8254 57.0808 14.7947 57.0732 16.9417C57.0646 19.2046 55.6681 21.0163 53.2922 21.0068C50.9162 20.9982 49.5349 19.1761 49.5435 16.9132C49.552 14.6807 50.9723 12.8083 53.3226 12.8168ZM89.5138 18.3905C89.8301 20.4016 91.7406 21.2357 93.6263 21.2424C94.5136 21.2462 95.5396 21.0229 96.3462 20.6467C96.4839 20.5821 96.6141 20.5251 96.7461 20.4491C97.1936 20.1926 97.604 20.0416 98.002 20.451C98.2158 20.6724 98.4314 20.8928 98.6499 21.1103C98.857 21.3174 99.0432 21.5236 99.2247 21.7535C99.827 22.5173 99.4014 22.6968 98.7164 23.1566C97.2439 24.1427 95.3173 24.6272 93.556 24.6215C88.8184 24.6035 85.6767 21.7259 85.6948 16.9322C85.7119 12.4112 88.8554 9.42819 93.3537 9.44434C97.9593 9.46239 100.581 12.1756 100.647 16.7726C100.664 18.0304 100.719 18.4323 99.4071 18.4275L89.5138 18.3905ZM53.3064 9.43959C48.945 9.42344 45.866 12.5774 45.8499 16.8999C45.8337 21.2804 48.8642 24.3973 53.2798 24.4135C57.6897 24.4306 60.7791 21.3412 60.7962 16.955C60.8114 12.6221 57.6536 9.45574 53.3064 9.43959ZM105.301 11.712C106.617 10.4722 108.04 9.69989 109.894 9.70749C113.91 9.72174 115.988 13.0201 115.975 16.785L115.951 23.1272C115.948 23.7884 115.405 24.328 114.744 24.3251L113.456 24.3204C112.794 24.3185 112.255 23.7741 112.258 23.1139L112.281 16.8002C112.288 14.714 111.171 13.0895 108.962 13.0819C106.805 13.0733 105.421 14.8973 105.413 16.9465L105.39 23.0968C105.388 23.7523 104.85 24.2881 104.193 24.2862L102.915 24.2814C102.259 24.2786 101.723 23.739 101.726 23.0835L101.771 11.0717C101.773 10.4162 102.313 9.88039 102.968 9.88324L104.058 9.88704C104.724 9.88989 105.193 10.439 105.247 11.0764L105.301 11.712ZM65.4835 11.5628C66.7993 10.324 68.2233 9.55264 70.0787 9.55929C74.0934 9.57449 76.172 12.8729 76.1587 16.6377L76.1349 22.9799C76.1321 23.6411 75.5877 24.1798 74.9275 24.1779L73.6383 24.1722C72.9771 24.1703 72.4385 23.6269 72.4404 22.9657L72.4641 16.652C72.4717 14.5658 71.3536 12.9422 69.1448 12.9337C66.9874 12.9261 65.6042 14.7501 65.5966 16.7992L65.5747 22.9495C65.5719 23.606 65.0323 24.1408 64.3758 24.138L63.0981 24.1332C62.4407 24.1313 61.9068 23.5927 61.9087 22.9353C61.922 19.1049 61.9372 15.2745 61.9505 11.445L61.9524 10.9244C61.9552 10.268 62.4948 9.73314 63.1513 9.73599L64.2409 9.73979C64.9059 9.74169 65.3762 10.2917 65.4303 10.9282L65.4835 11.5628ZM81.6221 9.86044L84.3705 9.87089C85.0279 9.87374 85.5618 10.4133 85.5589 11.0698L85.5561 11.8868C85.5532 12.5432 85.0155 13.0781 84.3581 13.0762L81.6098 13.0657L81.587 19.103C81.5832 20.2648 82.138 20.9384 83.316 20.9422L83.8736 20.9441C84.531 20.9469 85.0668 21.4837 85.0649 22.142L85.0621 22.96C85.0592 23.6164 84.5177 24.1513 83.8622 24.1484L83.0348 24.1456C79.7953 24.1332 77.9086 22.7396 77.9219 19.0897C77.9371 15.188 77.9504 11.2864 77.9656 7.38474C77.9684 6.72829 78.508 6.19249 79.1654 6.19534L80.4413 6.19914C81.0987 6.20199 81.6326 6.74159 81.6307 7.39899L81.6221 9.86044ZM121.378 10.0086L124.127 10.0181C124.783 10.021 125.318 10.5615 125.316 11.218L125.313 12.035C125.311 12.6905 124.771 13.2253 124.115 13.2234L121.365 13.213L121.344 19.2512C121.34 20.4121 121.894 21.0847 123.072 21.0885L123.629 21.0913C124.288 21.0932 124.822 21.6319 124.82 22.2893L124.817 23.1072C124.814 23.7637 124.274 24.2985 123.619 24.2966L122.556 24.2919C122.354 24.2957 122.167 24.2871 121.967 24.2776C118.991 24.0838 117.668 22.1487 117.678 19.2379C117.693 15.3362 117.707 11.4346 117.722 7.53294C117.724 6.87554 118.264 6.34069 118.92 6.34259L120.198 6.34829C120.855 6.35019 121.39 6.88979 121.387 7.54624L121.378 10.0086ZM130.354 10.0504L132.868 10.0599C133.532 10.0618 134.06 10.6195 134.057 11.2788L134.055 12.1129C134.052 12.7712 133.52 13.3251 132.856 13.3222L130.343 13.3137L130.307 23.1804C130.304 23.8435 129.761 24.3812 129.098 24.3783L127.811 24.3736C127.149 24.3717 126.609 23.8283 126.611 23.1671L126.663 9.53554C126.673 6.55349 128.355 4.21744 131.398 3.94289C131.482 3.93624 131.565 3.93149 131.645 3.92769C131.824 3.91154 132.009 3.91724 132.185 3.92294L133.358 3.92769C134.022 3.93054 134.549 4.48914 134.547 5.14749L134.545 5.90464C134.542 6.56394 134.011 7.11779 133.346 7.11494L132.487 7.11114C132.458 7.11494 132.431 7.11589 132.402 7.11589C130.964 7.11019 130.362 8.21979 130.356 9.54884L130.354 10.0504ZM145.796 22.6465C144.395 23.9727 143.044 24.6614 141.055 24.6538C137.024 24.6396 135.105 21.3013 135.119 17.5754L135.143 11.2351C135.145 10.5729 135.689 10.0333 136.35 10.0352L137.639 10.04C138.301 10.0428 138.841 10.5872 138.838 11.2484L138.815 17.5611C138.806 19.6473 139.923 21.2718 142.131 21.2794C144.293 21.288 145.673 19.4573 145.681 17.3996L145.691 15.132C145.669 15.0436 145.662 14.9581 145.662 14.866L145.674 11.274C145.677 10.6119 146.221 10.0723 146.882 10.0742L148.169 10.0789C148.832 10.0818 149.371 10.6252 149.369 11.2873L149.324 23.2602C149.322 23.9166 148.782 24.4515 148.125 24.4486L147.036 24.4448C146.37 24.4429 145.901 23.8929 145.847 23.2554L145.796 22.6465ZM152.578 24.4657C151.917 24.4638 151.377 23.9204 151.379 23.2583L151.438 7.64789C151.44 6.98764 151.984 6.44709 152.645 6.44994L153.933 6.45374C154.594 6.45659 155.134 7.00094 155.131 7.66214L155.074 23.2725C155.071 23.9337 154.527 24.4733 153.866 24.4705L152.578 24.4657ZM42.6047 20.1755C43.605 19.406 43.7466 19.8497 44.5997 20.698C45.0319 21.1274 46.1871 21.8627 45.4176 22.4935C43.833 23.7941 42.409 24.3831 40.3608 24.3745C35.7713 24.3584 32.5366 20.9251 32.7969 16.3993C32.9137 14.3606 33.7108 12.4435 35.2982 11.1154C36.7565 9.89654 38.5615 9.35979 40.452 9.40254C41.4134 9.42439 42.2693 9.56879 43.1595 9.92979C43.7361 10.1625 44.2985 10.4314 44.7925 10.8123C45.7957 11.5847 45.3312 12.0388 44.5417 12.8235C44.365 12.9983 44.194 13.1807 44.0192 13.3583C43.6259 13.7573 43.3457 14.0452 42.8042 13.6718C41.7801 12.966 40.4805 12.5831 39.2502 12.8966C35.2925 13.9055 35.4768 20.9488 40.3152 20.9669C41.1198 20.9697 41.9691 20.6657 42.6047 20.1755Z" fill="#2A3039"/>
</svg>
