<svg width="136" height="36" viewBox="0 0 136 36" fill="none" xmlns="http://www.w3.org/2000/svg">
<path fill-rule="evenodd" clip-rule="evenodd" d="M109.969 17.0498C111.252 15.2521 113.047 14.9953 114.073 14.9953C117.791 14.9953 120.356 17.9487 120.356 21.8009C120.356 25.6532 117.791 28.6066 113.944 28.6066C113.175 28.6066 111.252 28.4782 109.841 26.5521V28.2214H106.379V6.64868H109.969V17.0498ZM91.2478 18.4623V28.2214H87.6573V18.4623H86.2468V15.3805H87.6573V11.0146H91.2478V15.3805H93.6841V18.4623H91.2478ZM84.1951 15.3805H80.6047H80.4764V17.0498C79.3224 15.1237 77.3989 14.9953 76.3731 14.9953C72.6544 14.9953 70.0898 17.9487 70.0898 21.8009C70.0898 25.5248 72.6544 28.6066 76.6295 28.6066C77.6554 28.6066 79.3224 28.4782 80.6047 26.5521V28.2214H84.1951V15.3805ZM77.5272 25.3964C75.3472 25.3964 73.9367 23.8555 73.9367 21.8009C73.9367 19.7464 75.4755 18.2055 77.5272 18.2055C79.7071 18.2055 81.1176 19.7464 81.1176 21.8009C81.1176 23.8555 79.5788 25.3964 77.5272 25.3964ZM100.096 17.5634C100.48 17.5634 101.25 17.6919 102.147 18.4623L103.943 16.4078C102.276 15.1237 100.737 14.9953 99.8392 14.9953C98.8133 14.9953 97.531 15.1237 96.5052 15.8941C95.864 16.5362 95.2229 17.5634 95.2229 18.8475C95.2229 19.8748 95.6076 20.6453 96.2487 21.2873C96.9419 21.9815 97.8433 22.3629 98.6715 22.7134C98.7626 22.7519 98.8527 22.7901 98.9416 22.8282L99.7109 23.085C100.224 23.2134 100.865 23.5987 100.865 24.3691C100.865 25.268 100.096 25.7816 99.0698 25.7816C98.044 25.7816 97.0181 25.0112 96.2487 24.2407L94.3253 26.4237C95.2229 27.3225 96.6334 28.6066 99.3263 28.6066C100.865 28.6066 102.147 28.093 103.173 27.1941C104.199 26.2953 104.584 25.1396 104.584 23.9839C104.584 23.085 104.327 22.3146 103.943 21.8009C103.402 20.9355 102.225 20.5258 101.254 20.1878C101.073 20.1246 100.898 20.0639 100.737 20.0032L99.8392 19.7464C98.8133 19.3612 98.6851 18.9759 98.6851 18.5907C98.6851 17.9487 99.198 17.5634 100.096 17.5634ZM113.175 18.2055C115.355 18.2055 116.766 19.7464 116.766 21.8009C116.766 23.8555 115.227 25.3964 113.175 25.3964C110.995 25.3964 109.585 23.8555 109.585 21.8009C109.585 19.7464 110.995 18.2055 113.175 18.2055ZM126.255 26.2952L120.1 15.3805H124.331L128.306 22.6998L131.897 15.3805H136L125.742 35.0271H121.638L126.255 26.2952ZM60.2161 17.5634H69.1922C69.1922 17.6448 69.2051 17.7261 69.2186 17.8115C69.2477 17.9958 69.2798 18.199 69.1922 18.4623C69.1922 24.2407 64.8324 28.8634 58.9338 28.8634C53.0352 28.8634 48.6754 24.2407 48.6754 18.4623C48.6754 12.6839 53.2917 8.06118 58.9338 8.06118C62.2678 8.06118 65.3453 9.60209 67.2688 12.2987L64.3195 14.2248C63.0372 12.5555 60.9855 11.5282 58.9338 11.5282C55.2151 11.5282 52.6505 14.7384 52.6505 18.4623C52.6505 22.1862 55.3434 25.268 59.062 25.268C62.396 25.268 64.1912 23.5987 64.9606 21.1589H60.2161V17.5634Z" fill="black"/>
<path fill-rule="evenodd" clip-rule="evenodd" d="M23.0661 18.0644H32.019C32.019 24.7641 27.2867 30.4331 21.1476 31.9792L4.2648 14.9722C5.6717 8.65897 11.2993 3.89185 17.9501 3.89185C22.6824 3.89185 26.7751 6.21099 29.3331 9.6897L27.4146 11.3646C25.2404 8.40129 21.7871 6.46867 17.9501 6.46867C12.962 6.46867 8.61339 9.6897 7.0786 14.1991L21.7871 29.0159C25.4962 27.7275 28.3099 24.5064 29.2052 20.6412H23.0661V18.0644ZM7.97389 27.9851C5.288 25.2795 3.8811 21.8008 3.8811 18.1932L17.6943 32.1081C14.241 32.1081 10.6598 30.6908 7.97389 27.9851Z" fill="white"/>
<path fill-rule="evenodd" clip-rule="evenodd" d="M17.9501 0C8.07753 0 0 8.1 0 18C0 27.9 8.07753 36 17.9501 36C27.8226 36 35.9001 27.9 35.9001 18C35.9001 8.1 27.8226 0 17.9501 0ZM7.94931 28.0286C5.2568 25.3286 3.84644 21.7286 3.84644 18.2571L17.8218 32.1429C14.2318 32.0143 10.6418 30.7286 7.94931 28.0286ZM4.23109 14.9143L21.0272 31.7571C27.3097 30.3429 32.0537 24.6857 32.0537 18H23.0786V20.5714H29.233C28.3355 24.4286 25.5147 27.6429 21.7965 28.9286L7.05181 14.1429C8.7186 9.64286 12.9497 6.42857 17.9501 6.42857C21.7965 6.42857 25.2583 8.35714 27.4379 11.3143L29.3612 9.64286C26.7969 6.17143 22.694 3.85714 17.9501 3.85714C11.2829 3.85714 5.64145 8.61429 4.23109 14.9143Z" fill="#663399"/>
</svg>
