<svg width="44" height="44" viewBox="0 0 44 44" fill="none" xmlns="http://www.w3.org/2000/svg">
<path fill-rule="evenodd" clip-rule="evenodd" d="M22 0C9.845 0 0 10.094 0 22.5565C0 32.5377 6.2975 40.9682 15.0425 43.9569C16.1425 44.1543 16.555 43.4776 16.555 42.8855C16.555 42.3498 16.5275 40.5734 16.5275 38.6843C11 39.7276 9.57 37.3028 9.13 36.034C8.8825 35.3855 7.81 33.3836 6.875 32.8479C6.105 32.4249 5.005 31.3817 6.8475 31.3535C8.58 31.3253 9.8175 32.9888 10.23 33.6655C12.21 37.0772 15.3725 36.1185 16.6375 35.5264C16.83 34.0603 17.4075 33.0734 18.04 32.5095C13.145 31.9456 8.03 30.0001 8.03 21.3722C8.03 18.9192 8.8825 16.8892 10.285 15.3102C10.065 14.7463 9.295 12.4343 10.505 9.33274C10.505 9.33274 12.3475 8.74063 16.555 11.6448C18.315 11.1373 20.185 10.8835 22.055 10.8835C23.925 10.8835 25.795 11.1373 27.555 11.6448C31.7625 8.71243 33.605 9.33274 33.605 9.33274C34.815 12.4343 34.045 14.7463 33.825 15.3102C35.2275 16.8892 36.08 18.891 36.08 21.3722C36.08 30.0283 30.9375 31.9456 26.0425 32.5095C26.84 33.2144 27.5275 34.5678 27.5275 36.6824C27.5275 39.6994 27.5 42.1242 27.5 42.8855C27.5 43.4776 27.9125 44.1825 29.0125 43.9569C37.7025 40.9682 44 32.5095 44 22.5565C44 10.094 34.155 0 22 0Z" fill="#5EA8F4"/>
</svg>
