<svg width="136" height="36" viewBox="0 0 136 36" fill="none" xmlns="http://www.w3.org/2000/svg">
<path fill-rule="evenodd" clip-rule="evenodd" d="M111.629 28.876V14.1737H108.944V11.2399H111.629V9.62653C111.629 7.67006 112.171 6.16052 113.255 5.09512C114.341 4.03065 115.858 3.49841 117.81 3.49841C118.505 3.49841 119.243 3.59577 120.024 3.79142L119.926 6.8884C119.427 6.79584 118.921 6.75237 118.413 6.75858C116.525 6.75858 115.582 7.73033 115.582 9.67568V11.2399H119.161V14.1737H115.582V28.876H111.629ZM93.4715 28.8769H97.4254V3.84149H93.4715V28.8769ZM87.0934 6.95423V11.2409H90.2013V14.1746H87.0934V24.0191C87.0934 24.6923 87.227 25.1782 87.4923 25.4777C87.7576 25.7762 88.2326 25.9255 88.9164 25.9255C89.3819 25.9242 89.8457 25.8695 90.2987 25.7623V28.8269C89.3988 29.0772 88.5314 29.2015 87.6955 29.2015C84.6591 29.2015 83.1404 27.5232 83.1404 24.1656V14.1737H80.2422V11.2399H83.1385V6.9533H87.0915L87.0934 6.95423ZM49.3955 11.2399L49.5096 13.278C50.8112 11.7017 52.5201 10.9135 54.6353 10.9135C58.3007 10.9135 60.1663 13.0165 60.2313 17.2225V28.876H56.2792V17.4506C56.2792 16.3314 56.038 15.5034 55.5556 14.9646C55.0731 14.4268 54.2837 14.1579 53.188 14.1579C51.5933 14.1579 50.4049 14.8812 49.6256 16.3258V28.876H45.6716V11.2399H49.3955ZM72.0114 29.2024C69.5066 29.2024 67.4749 28.4124 65.9191 26.8314C64.3624 25.2505 63.584 23.1447 63.584 20.5151V20.0264C63.584 18.2665 63.9227 16.693 64.6008 15.3077C65.2781 13.9224 66.2308 12.8441 67.4563 12.0717C68.6819 11.3011 70.0484 10.9154 71.5569 10.9154C73.9532 10.9154 75.8058 11.6813 77.1121 13.2131C78.4201 14.7458 79.0732 16.9128 79.0732 19.7167V21.3144H67.5695C67.6901 22.7701 68.1744 23.9218 69.026 24.7693C69.8777 25.6168 70.9492 26.0405 72.2397 26.0405C74.0506 26.0405 75.5257 25.308 76.6649 23.8402L78.7959 25.8782C78.0908 26.9316 77.1501 27.7494 75.9737 28.3308C74.7965 28.9122 73.4763 29.2024 72.0124 29.2024H72.0114ZM68.9129 15.2345C69.5799 14.4741 70.4547 14.094 71.5402 14.094C72.6358 14.094 73.4921 14.4333 74.1109 15.1121C74.7287 15.7917 75.0813 16.7932 75.1685 18.1191V18.413H67.6354C67.82 17.0546 68.2449 15.9948 68.9129 15.2345ZM105.934 28.8769H101.981V11.2409H105.934V28.8769ZM102.314 5.14519C101.929 5.54761 101.737 6.05296 101.737 6.6603V6.66122C101.737 7.25837 101.929 7.75629 102.314 8.15222C102.699 8.54908 103.25 8.74751 103.965 8.74751C104.681 8.74751 105.234 8.54908 105.626 8.15222C106.015 7.75537 106.21 7.25837 106.21 6.66122C106.21 6.05296 106.015 5.54761 105.626 5.14519C105.234 4.74369 104.681 4.54248 103.965 4.54248C103.25 4.54248 102.699 4.74369 102.314 5.14519ZM131.786 11.2409L128.207 23.205L124.481 11.2409H120.219L126.401 28.7953L125.832 30.3114C125.539 31.17 125.14 31.781 124.636 32.1445C124.132 32.5089 123.38 32.6907 122.383 32.6907L121.634 32.6415V35.706C122.328 35.9017 122.963 36 123.538 36C126.109 36 127.931 34.5164 129.005 31.5502L136 11.2409H131.786Z" fill="#0E1E25"/>
<path fill-rule="evenodd" clip-rule="evenodd" d="M10.2743 6.73279L15.6665 1.34253C16.4131 0.596199 16.7869 0.222571 17.2191 0.0862846C17.5831 -0.0287615 17.9737 -0.0287615 18.3376 0.0862846C18.7698 0.22257 19.1436 0.596194 19.8901 1.34251L19.8902 1.34253L21.0588 2.5107L17.2237 8.44796C17.2142 8.46524 17.2013 8.48039 17.1857 8.49246C17.1625 8.50822 17.1301 8.50173 17.1022 8.49246C16.4884 8.30624 15.8222 8.43458 15.3215 8.83549C15.2965 8.86145 15.2594 8.84662 15.2279 8.83271C14.8507 8.66864 12.5486 7.69492 11.1966 7.12304L11.1955 7.12259C10.7527 6.93527 10.4119 6.79113 10.2743 6.73279ZM9.43127 7.57369L5.26793 11.7374H5.26701L9.7262 18.2392C9.73745 18.2572 9.75155 18.2731 9.76794 18.2865C9.78163 18.2968 9.79691 18.2944 9.81376 18.2918L9.81802 18.2912H9.81895C9.98589 18.2606 10.151 18.2328 10.3031 18.2328C10.4731 18.2352 10.6422 18.2583 10.8067 18.3014C10.8327 18.3078 10.8642 18.3143 10.8864 18.3004C10.905 18.2884 10.9152 18.2726 10.9263 18.2541L15.1555 11.7058L15.1685 11.6864C15.1926 11.6521 15.2204 11.6122 15.1926 11.5844C14.7559 11.1371 14.5736 10.5001 14.7076 9.88962C14.7113 9.87201 14.715 9.85069 14.7076 9.834C14.6955 9.80618 14.6705 9.79506 14.6426 9.78393C14.4169 9.6855 13.7891 9.42012 13.0412 9.10394L12.5225 8.88463L12.3671 8.819C11.1353 8.29886 9.80769 7.73825 9.43127 7.57369ZM25.7313 12.3307L25.7442 12.3363C25.9176 12.425 26.0732 12.5447 26.2033 12.6895C26.2126 12.6988 26.2172 12.7025 26.2219 12.7053H26.2358C26.2463 12.7055 26.2567 12.7036 26.2664 12.6997L29.7629 11.2126L26.4009 7.85089L25.684 12.2325C25.6788 12.2637 25.6884 12.2955 25.7099 12.3187C25.7164 12.3252 25.7238 12.3279 25.7313 12.3307ZM34.2156 15.6628L30.6208 12.0693L26.9295 13.6305L26.9184 13.6352C26.8841 13.6491 26.8433 13.6658 26.8433 13.701C26.8433 13.7358 26.8823 13.7516 26.9163 13.7654L26.9175 13.7659L26.9314 13.7715L35.5224 17.4085C35.5094 17.3427 35.4927 17.2788 35.4723 17.2148C35.3366 16.7848 34.9657 16.4135 34.226 15.6732L34.2156 15.6628ZM34.2227 19.8787L34.2226 19.8788L34.2165 19.8849L30.1636 23.9355L24.9216 22.8442L24.8938 22.8387C24.8474 22.8313 24.7982 22.8229 24.7982 22.7812C24.758 22.3442 24.538 21.9436 24.1908 21.6751C24.1694 21.6538 24.175 21.6204 24.1815 21.5898L24.1815 21.5857L24.1818 21.5824C24.182 21.5804 24.1825 21.5786 24.1833 21.5769L25.1692 15.5265L25.1729 15.5061C25.1785 15.4597 25.1868 15.406 25.2286 15.406C25.6554 15.3529 26.043 15.1308 26.3044 14.7894L26.3079 14.7854L26.3109 14.7817C26.3163 14.7749 26.3214 14.7684 26.3295 14.7644C26.3591 14.7505 26.3944 14.7644 26.425 14.7774L35.3749 18.5619H35.3759C35.191 18.9093 34.8311 19.2696 34.2227 19.8787ZM22.5668 31.5295L29.2305 24.8681L24.5376 23.9039C24.5287 23.9025 24.5196 23.9025 24.5107 23.9039C24.4764 23.9086 24.4495 23.9336 24.4273 23.9596C24.2534 24.1681 24.0325 24.3323 23.7827 24.4389L23.7716 24.4435L23.7702 24.4441C23.7474 24.4531 23.7241 24.4625 23.715 24.4843C23.7122 24.4927 23.7103 24.5019 23.7094 24.5112L23.7076 24.5205L22.5668 31.5295ZM21.1561 32.9396L20.4049 33.6906L12.0996 21.6918C12.0966 21.6874 12.0935 21.6831 12.0903 21.6789L12.0884 21.6764C12.076 21.6596 12.0635 21.6427 12.0662 21.6232C12.0662 21.6084 12.0764 21.5954 12.0866 21.5843L12.0958 21.5722C12.1194 21.5374 12.1396 21.5025 12.1613 21.4653L12.1654 21.4582L12.184 21.4257L12.1867 21.423L12.1877 21.4213C12.2003 21.3997 12.2123 21.3791 12.234 21.3673C12.2535 21.3581 12.2804 21.3618 12.3017 21.3664L21.503 23.2633C21.5287 23.2673 21.553 23.2778 21.5735 23.2939C21.5855 23.3059 21.5883 23.3189 21.5911 23.3338C21.7212 23.8258 22.0739 24.2288 22.5445 24.4231C22.5705 24.4361 22.5594 24.4648 22.5473 24.4954C22.5413 24.5088 22.5366 24.5228 22.5334 24.5372C22.4175 25.2418 21.4232 31.3033 21.1561 32.9396ZM19.5865 34.5078L19.5869 34.5074V34.5083L19.5865 34.5078ZM19.5865 34.5078C19.033 35.0554 18.7066 35.3455 18.3376 35.4623C17.9737 35.5774 17.5831 35.5774 17.2191 35.4623C16.7869 35.3251 16.4131 34.9524 15.6665 34.2051L7.32595 25.8676L9.50454 22.4901C9.51474 22.4734 9.52495 22.4586 9.54164 22.4465C9.56483 22.4298 9.59821 22.4372 9.62604 22.4465C10.1261 22.5973 10.663 22.5701 11.1452 22.3696C11.1702 22.3603 11.1953 22.3538 11.2148 22.3714C11.2245 22.3803 11.2332 22.3902 11.2407 22.4011L19.5865 34.5078ZM6.52185 25.0638L4.60852 23.1511L8.38696 21.5398C8.39662 21.5356 8.40703 21.5334 8.41757 21.5333C8.4491 21.5333 8.46765 21.5648 8.48434 21.5936C8.52231 21.652 8.56253 21.7089 8.60491 21.7641L8.61697 21.779C8.6281 21.7947 8.62068 21.8105 8.60955 21.8253L6.52278 25.0638H6.52185ZM1.3411 19.8849L3.76175 22.3047L7.78412 20.6015L7.80545 20.5923C7.85182 20.5747 7.90654 20.5533 7.90654 20.507C7.90654 20.4643 7.85646 20.456 7.81101 20.4486C7.80171 20.4472 7.79243 20.4456 7.78319 20.4439L0.422919 18.9179C0.630668 19.1747 0.929308 19.4732 1.3411 19.8849ZM0 17.6737L4.95509e-05 17.6728L8.29978 19.413H8.30163L8.30239 19.4131C8.31602 19.4159 8.32875 19.4184 8.34059 19.4111C8.36065 19.3962 8.3766 19.3764 8.38696 19.3536C8.48249 19.1766 8.6179 19.0134 8.7533 18.8641C8.78206 18.8363 8.75423 18.7992 8.72919 18.7658C7.29519 16.702 5.86506 14.6354 4.43879 12.5662L1.3411 15.6628C0.59357 16.41 0.220734 16.7827 0.0834708 17.2148C0.0365257 17.3633 0.00849805 17.5172 4.95509e-05 17.6728L0 17.6728V17.6737ZM25.4141 6.86444L21.8731 3.32471L18.102 9.16833C18.0805 9.21052 18.1068 9.25358 18.132 9.29499L18.1345 9.29905C18.2921 9.55701 18.3903 9.84678 18.422 10.1474C18.422 10.1826 18.4628 10.1993 18.4971 10.2132L18.5073 10.2178L23.9033 12.5097C23.916 12.5144 23.9295 12.5166 23.9431 12.5161C23.9598 12.5143 23.97 12.5041 23.9802 12.493C23.984 12.4892 23.9879 12.4857 23.992 12.4824L23.9988 12.4772C24.1528 12.3649 24.3246 12.2793 24.507 12.2241L24.5123 12.2225C24.529 12.2177 24.545 12.2131 24.5534 12.1963C24.5576 12.185 24.5601 12.1731 24.5608 12.1611V12.1472L25.4141 6.86444ZM18.2263 11.3035L23.2846 13.4451L23.2914 13.4482C23.3173 13.4601 23.344 13.4725 23.3551 13.4989C23.36 13.5162 23.36 13.5345 23.3551 13.5517C23.3403 13.6259 23.3273 13.7103 23.3273 13.7956V13.9374C23.3273 13.9724 23.2916 13.9873 23.2584 14.0011L23.2577 14.0014L23.2475 14.0051C22.4462 14.3472 11.9975 18.8011 11.9818 18.8011C11.966 18.8011 11.9493 18.8011 11.9335 18.7853C11.9058 18.7576 11.9334 18.7188 11.9584 18.6837L11.9586 18.6833C11.963 18.6772 11.9673 18.671 11.9716 18.6648L16.1284 12.2306L16.1358 12.2195C16.1599 12.1805 16.1878 12.137 16.2323 12.137L16.274 12.1434L16.2873 12.1453C16.3765 12.1575 16.4561 12.1685 16.5365 12.1685C17.1672 12.1685 17.7515 11.8616 18.1039 11.3369C18.1123 11.3228 18.1229 11.3103 18.1354 11.2998C18.1605 11.2812 18.1976 11.2905 18.2263 11.3035ZM23.8226 14.9637L12.4334 19.8191C12.4387 19.8195 12.4763 19.9474 12.5128 20.0714C12.547 20.1876 12.5801 20.3003 12.5846 20.3012L21.6672 22.1739C21.6876 22.1786 21.7126 22.1823 21.7321 22.173C21.7529 22.1621 21.7649 22.1425 21.7775 22.1217L21.7785 22.1202L21.7831 22.1127C22.0519 21.6569 22.5284 21.3631 23.0565 21.3275C23.0992 21.3275 23.1063 21.2767 23.1127 21.2311L23.1131 21.2283L23.1168 21.2042L24.0925 15.2131C24.0943 15.2048 24.0943 15.1992 24.0943 15.19C24.0925 15.1658 24.0693 15.151 24.0461 15.138L24.021 15.1223C23.97 15.0833 23.9172 15.0416 23.855 14.9795C23.8393 14.9637 23.8226 14.9637 23.8226 14.9637Z" fill="url(#paint0_radial)"/>
<defs>
<radialGradient id="paint0_radial" cx="0" cy="0" r="1" gradientUnits="userSpaceOnUse" gradientTransform="translate(17.7612 -17.7743) rotate(90) scale(35.5485 35.5223)">
<stop stop-color="#20C6B7"/>
<stop offset="1" stop-color="#4D9ABF"/>
</radialGradient>
</defs>
</svg>
