<svg width="24" height="24" xmlns="http://www.w3.org/2000/svg" xmlns:xlink="http://www.w3.org/1999/xlink" viewBox="0 0 130 106"><defs><style>.a,.b{fill:none;}.a{clip-rule:evenodd;}.c{clip-path:url(#a);}.d{clip-path:url(#b);}.f{clip-path:url(#c);}</style><clipPath id="a"><path class="a" d="M115.55,61,65.48,88.93,14.42,61a4,4,0,1,0-3.84,7l53,29a4,4,0,0,0,3.87,0l52-29a4,4,0,1,0-3.9-7ZM20.62,42.5,65.48,17.11,115.5,46a4,4,0,1,0,4-6.93L67.5,9a4,4,0,0,0-4,0l-53,30a4,4,0,0,0,0,7l53,30a4,4,0,1,0,3.94-7ZM0,63.5H0v-20H0a12.41,12.41,0,0,1,6.3-11.88l53-30a12.5,12.5,0,0,1,12.4.05l52,30A12.5,12.5,0,0,1,130,43.5h0v20h0a12.5,12.5,0,0,1-6.37,11.92l-52,29a12.5,12.5,0,0,1-12.09,0l-53-29A12.5,12.5,0,0,1,0,63.5Z"/></clipPath><clipPath id="b"><rect class="b" x="-53.5" y="-294.5" width="720" height="512"/></clipPath><clipPath id="c"><path class="a" d="M115.55,191,65.48,218.93,14.42,191a4,4,0,1,0-3.84,7l53,29a4,4,0,0,0,3.87,0l52-29a4,4,0,1,0-3.9-7ZM20.62,172.5l44.86-25.39,50,28.86a4,4,0,1,0,4-6.93l-52-30a4,4,0,0,0-4,0l-53,30a4,4,0,0,0,0,7l53,30a4,4,0,1,0,3.94-7ZM0,193.5H0v-20H0a12.41,12.41,0,0,1,6.3-11.88l53-30a12.5,12.5,0,0,1,12.4.05l52,30A12.5,12.5,0,0,1,130,173.5h0v20h0a12.5,12.5,0,0,1-6.37,11.92l-52,29a12.5,12.5,0,0,1-12.09,0l-53-29A12.5,12.5,0,0,1,0,193.5Z"/></clipPath></defs><title>stackbit-logo-transparent-bg</title><g class="c"><g class="d"><rect class="e" x="-2.5" y="-2.5" width="135" height="111"/></g></g></svg>
