<svg width="160" height="36" xmlns="http://www.w3.org/2000/svg" xmlns:xlink="http://www.w3.org/1999/xlink" viewBox="0 0 691.81 106"><defs><style>.a,.b{fill:none;}.a{clip-rule:evenodd;}.c{fill:#031e34;}.d{fill:#3eb2fd;}.e{clip-path:url(#a);}.f{clip-path:url(#b);}.g{fill:#3eb0fd;}.h{clip-path:url(#c);}.i{clip-path:url(#d);}.j{clip-path:url(#e);}.k{clip-path:url(#f);}.l{clip-path:url(#g);}</style><clipPath id="a"><path class="a" d="M115.55,61,65.48,88.93,14.42,61a4,4,0,1,0-3.84,7l53,29a4,4,0,0,0,3.87,0l52-29a4,4,0,1,0-3.9-7ZM20.62,42.5,65.48,17.11,115.5,46a4,4,0,1,0,4-6.93L67.5,9a4,4,0,0,0-4,0l-53,30a4,4,0,0,0,0,7l53,30a4,4,0,1,0,3.94-7ZM0,63.5H0v-20H0a12.41,12.41,0,0,1,6.3-11.88l53-30a12.5,12.5,0,0,1,12.4.05l52,30A12.5,12.5,0,0,1,130,43.5h0v20h0a12.5,12.5,0,0,1-6.37,11.92l-52,29a12.5,12.5,0,0,1-12.09,0l-53-29A12.5,12.5,0,0,1,0,63.5Z"/></clipPath><clipPath id="b"><rect class="b" x="-53.5" y="-294.5" width="720" height="512"/></clipPath><clipPath id="c"><path class="a" d="M115.55,431,65.48,458.93,14.42,431a4,4,0,1,0-3.84,7l53,29a4,4,0,0,0,3.87,0l52-29a4,4,0,1,0-3.9-7ZM20.62,412.5l44.86-25.39,50,28.86a4,4,0,1,0,4-6.93l-52-30a4,4,0,0,0-4,0l-53,30a4,4,0,0,0,0,7l53,30a4,4,0,1,0,3.94-7ZM0,433.5H0v-20H0a12.41,12.41,0,0,1,6.3-11.88l53-30a12.5,12.5,0,0,1,12.4.05l52,30A12.5,12.5,0,0,1,130,413.5h0v20h0a12.5,12.5,0,0,1-6.37,11.92l-52,29a12.5,12.5,0,0,1-12.09,0l-53-29A12.5,12.5,0,0,1,0,433.5Z"/></clipPath><clipPath id="d"><path class="a" d="M846.55,61,796.48,88.93,745.42,61a4,4,0,1,0-3.84,7l53,29a4,4,0,0,0,3.87,0l52-29a4,4,0,1,0-3.9-7ZM751.62,42.5l44.86-25.39L846.5,46a4,4,0,1,0,4-6.93l-52-30a4,4,0,0,0-4,0l-53,30a4,4,0,0,0,0,7l53,30a4,4,0,1,0,3.94-7ZM731,63.5h0v-20h0a12.41,12.41,0,0,1,6.3-11.88l53-30a12.5,12.5,0,0,1,12.4.05l52,30A12.5,12.5,0,0,1,861,43.5h0v20h0a12.5,12.5,0,0,1-6.37,11.92l-52,29a12.5,12.5,0,0,1-12.09,0l-53-29A12.5,12.5,0,0,1,731,63.5Z"/></clipPath><clipPath id="e"><path class="a" d="M846.55,431l-50.07,27.92L745.42,431a4,4,0,1,0-3.84,7l53,29a4,4,0,0,0,3.87,0l52-29a4,4,0,1,0-3.9-7ZM751.62,412.5l44.86-25.39,50,28.86a4,4,0,1,0,4-6.93l-52-30a4,4,0,0,0-4,0l-53,30a4,4,0,0,0,0,7l53,30a4,4,0,1,0,3.94-7ZM731,433.5h0v-20h0a12.41,12.41,0,0,1,6.3-11.88l53-30a12.5,12.5,0,0,1,12.4.05l52,30A12.5,12.5,0,0,1,861,413.5h0v20h0a12.5,12.5,0,0,1-6.37,11.92l-52,29a12.5,12.5,0,0,1-12.09,0l-53-29A12.5,12.5,0,0,1,731,433.5Z"/></clipPath><clipPath id="f"><path class="a" d="M115.55,190,65.48,217.93,14.42,190a4,4,0,1,0-3.84,7l53,29a4,4,0,0,0,3.87,0l52-29a4,4,0,1,0-3.9-7ZM20.62,171.5l44.86-25.39,50,28.86a4,4,0,1,0,4-6.93l-52-30a4,4,0,0,0-4,0l-53,30a4,4,0,0,0,0,7l53,30a4,4,0,1,0,3.94-7ZM0,192.5H0v-20H0a12.41,12.41,0,0,1,6.3-11.88l53-30a12.5,12.5,0,0,1,12.4.05l52,30A12.5,12.5,0,0,1,130,172.5h0v20h0a12.5,12.5,0,0,1-6.37,11.92l-52,29a12.5,12.5,0,0,1-12.09,0l-53-29A12.5,12.5,0,0,1,0,192.5Z"/></clipPath><clipPath id="g"><path class="a" d="M846.55,190l-50.07,27.92L745.42,190a4,4,0,1,0-3.84,7l53,29a4,4,0,0,0,3.87,0l52-29a4,4,0,1,0-3.9-7ZM751.62,171.5l44.86-25.39,50,28.86a4,4,0,1,0,4-6.93l-52-30a4,4,0,0,0-4,0l-53,30a4,4,0,0,0,0,7l53,30a4,4,0,1,0,3.94-7ZM731,192.5h0v-20h0a12.41,12.41,0,0,1,6.3-11.88l53-30a12.5,12.5,0,0,1,12.4.05l52,30A12.5,12.5,0,0,1,861,172.5h0v20h0a12.5,12.5,0,0,1-6.37,11.92l-52,29a12.5,12.5,0,0,1-12.09,0l-53-29A12.5,12.5,0,0,1,731,192.5Z"/></clipPath></defs><title>full-logo-transparent-bg</title><path class="c" d="M185.39,59.55A38.93,38.93,0,0,1,172.72,54,24.54,24.54,0,0,1,162,34.1a24.4,24.4,0,0,1,6.1-18,28.29,28.29,0,0,1,19.48-8.69c12.19,0,19,4.66,25.1,8.82l2.75,1.89-8.73,15-3-2c-5.38-3.65-8.85-6-16.14-6-1.08,0-5.26.88-7.41,3.28-.72.76-1.55,2.14-1.43,5,.12,4.54,3.11,7.06,10.76,9.07,1,.25,1.67.5,2.39.76,8,2.9,14.22,6.8,18.53,11.72A26.28,26.28,0,0,1,217,72.15a27.71,27.71,0,0,1-6.69,17.52A24.9,24.9,0,0,1,191,98.74a47.22,47.22,0,0,1-14.7-2.14,46.09,46.09,0,0,1-20-13.36l12.19-12.1A28.15,28.15,0,0,0,191,81.1c6.93,0,9.2-6.68,9.2-8.95,0-4.79-5.14-9.2-13.87-12.35l-.36-.13Z"/><path class="c" d="M289.11,8.65V26.29H265.92V97H249.18V26.29H225.88V8.65Z"/><path class="c" d="M346.84,80.6H312.17L304.28,97H285.52L328.19,8.65h4.9L372.66,97H354.13ZM338.95,63,330.22,43.3,320.78,63Z"/><path class="c" d="M434.83,30.07C418.58,19,394.07,29.31,394.07,53c0,24.82,25.94,34.78,41.72,22.18l10.76,13a42.2,42.2,0,0,1-27.73,10.58c-23.91,0-43.39-20.54-43.39-45.74S394.91,7.26,418.81,7.26A42.3,42.3,0,0,1,445.59,17Z"/><path class="c" d="M481.84,56.53l-6.45,6.93V96.85H458.65V8.65h16.73V37.12l24.5-28.48h22.59L493.19,43.17l30,53.68h-20Z"/><path class="c" d="M561,81.86a10.42,10.42,0,0,0,10.28-10.58A10.54,10.54,0,0,0,561,60.56H533.59V8.65h22.83c13.51,0,24.5,11.59,24.5,25.83A26,26,0,0,1,576.62,49a27.08,27.08,0,0,1,9.92,21.17c0,14.87-11.36,26.71-25.34,26.71h-6v-15ZM555.7,43.55a10,10,0,0,0,9.68-10.21,9.82,9.82,0,0,0-9.68-10h-7.29V43.55Z"/><path class="c" d="M601.13,96.85V8.65h16.73v88.2Z"/><path class="c" d="M691.81,8.65V26.29H668.62V97H651.88V26.29H628.58V8.65Z"/><path class="d" d="M549.12,96.88H533.58v-15h15.54Z"/><g class="e"><g class="f"><rect class="g" x="-2.5" y="-2.5" width="135" height="111"/></g></g></svg>